{
	"asset":{
		"generator":"Khronos glTF Blender I/O v5.1.19",
		"version":"2.0"
	},
	"scene":0,
	"scenes":[
		{
			"name":"Scene",
			"nodes":[
				7
			]
		}
	],
	"nodes":[
		{
			"name":"Bone.003",
			"rotation":[
				-0.33320698142051697,
				-5.741929598457318e-08,
				0.6487872004508972,
				0.6841406226158142
			],
			"scale":[
				0.9999999403953552,
				0.9999999403953552,
				1
			],
			"translation":[
				-6.705522537231445e-07,
				3.27484393119812,
				-1.4901161193847656e-07
			]
		},
		{
			"children":[
				0
			],
			"name":"Bone.002",
			"rotation":[
				-0.0554908886551857,
				-2.2959842027603372e-08,
				0.6810449361801147,
				0.730135977268219
			],
			"translation":[
				0,
				3.68428897857666,
				0
			]
		},
		{
			"mesh":0,
			"name":"Cube",
			"rotation":[
				0.09481892734766006,
				-0.19742222130298615,
				0.9757023453712463,
				0.00622841902077198
			],
			"scale":[
				1,
				1,
				1.0000001192092896
			],
			"translation":[
				4.010835647583008,
				-2.255451202392578,
				0.2548042833805084
			]
		},
		{
			"children":[
				2
			],
			"name":"Bone.005",
			"rotation":[
				-0.20684361457824707,
				2.143187138869962e-08,
				-0.6952804327011108,
				0.6883319616317749
			],
			"scale":[
				0.9999999403953552,
				1,
				0.9999999403953552
			],
			"translation":[
				4.880130290985107e-07,
				3.681898593902588,
				-1.1920928955078125e-07
			]
		},
		{
			"children":[
				3
			],
			"name":"Bone.004",
			"rotation":[
				0.07328518480062485,
				-2.1043506492901543e-08,
				-0.7081120610237122,
				0.7022866606712341
			],
			"scale":[
				1,
				1,
				0.9999999403953552
			],
			"translation":[
				0,
				3.68428897857666,
				0
			]
		},
		{
			"children":[
				1,
				4
			],
			"name":"Bone.001",
			"translation":[
				0,
				1,
				0
			]
		},
		{
			"children":[
				5
			],
			"name":"Bone",
			"translation":[
				-7.3054938316345215,
				-0.08002758026123047,
				-3.6947529315948486
			]
		},
		{
			"children":[
				6
			],
			"name":"Armature",
			"translation":[
				7.477097988128662,
				5.024051666259766,
				1.4815587997436523
			]
		}
	],
	"animations":[
		{
			"channels":[
				{
					"sampler":0,
					"target":{
						"node":5,
						"path":"translation"
					}
				},
				{
					"sampler":1,
					"target":{
						"node":5,
						"path":"rotation"
					}
				},
				{
					"sampler":2,
					"target":{
						"node":5,
						"path":"scale"
					}
				},
				{
					"sampler":3,
					"target":{
						"node":4,
						"path":"translation"
					}
				},
				{
					"sampler":4,
					"target":{
						"node":6,
						"path":"translation"
					}
				},
				{
					"sampler":5,
					"target":{
						"node":0,
						"path":"rotation"
					}
				},
				{
					"sampler":6,
					"target":{
						"node":3,
						"path":"translation"
					}
				},
				{
					"sampler":7,
					"target":{
						"node":3,
						"path":"rotation"
					}
				},
				{
					"sampler":8,
					"target":{
						"node":1,
						"path":"scale"
					}
				},
				{
					"sampler":9,
					"target":{
						"node":4,
						"path":"scale"
					}
				},
				{
					"sampler":10,
					"target":{
						"node":0,
						"path":"translation"
					}
				},
				{
					"sampler":11,
					"target":{
						"node":1,
						"path":"rotation"
					}
				},
				{
					"sampler":12,
					"target":{
						"node":6,
						"path":"scale"
					}
				},
				{
					"sampler":13,
					"target":{
						"node":1,
						"path":"translation"
					}
				},
				{
					"sampler":14,
					"target":{
						"node":4,
						"path":"rotation"
					}
				},
				{
					"sampler":15,
					"target":{
						"node":0,
						"path":"scale"
					}
				},
				{
					"sampler":16,
					"target":{
						"node":3,
						"path":"scale"
					}
				},
				{
					"sampler":17,
					"target":{
						"node":6,
						"path":"rotation"
					}
				}
			],
			"name":"ArmatureAction",
			"samplers":[
				{
					"input":4,
					"interpolation":"CUBICSPLINE",
					"output":5
				},
				{
					"input":4,
					"interpolation":"CUBICSPLINE",
					"output":6
				},
				{
					"input":4,
					"interpolation":"CUBICSPLINE",
					"output":7
				},
				{
					"input":8,
					"interpolation":"LINEAR",
					"output":9
				},
				{
					"input":8,
					"interpolation":"STEP",
					"output":10
				},
				{
					"input":8,
					"interpolation":"LINEAR",
					"output":11
				},
				{
					"input":8,
					"interpolation":"LINEAR",
					"output":12
				},
				{
					"input":8,
					"interpolation":"LINEAR",
					"output":13
				},
				{
					"input":8,
					"interpolation":"STEP",
					"output":14
				},
				{
					"input":8,
					"interpolation":"STEP",
					"output":15
				},
				{
					"input":8,
					"interpolation":"LINEAR",
					"output":16
				},
				{
					"input":8,
					"interpolation":"LINEAR",
					"output":17
				},
				{
					"input":8,
					"interpolation":"STEP",
					"output":18
				},
				{
					"input":8,
					"interpolation":"LINEAR",
					"output":19
				},
				{
					"input":8,
					"interpolation":"LINEAR",
					"output":20
				},
				{
					"input":8,
					"interpolation":"LINEAR",
					"output":21
				},
				{
					"input":8,
					"interpolation":"LINEAR",
					"output":22
				},
				{
					"input":8,
					"interpolation":"STEP",
					"output":23
				}
			]
		}
	],
	"materials":[
		{
			"doubleSided":true,
			"name":"Material",
			"pbrMetallicRoughness":{
				"baseColorFactor":[
					0.800000011920929,
					0.800000011920929,
					0.800000011920929,
					1
				],
				"metallicFactor":0,
				"roughnessFactor":0.5
			}
		}
	],
	"meshes":[
		{
			"name":"Cube",
			"primitives":[
				{
					"attributes":{
						"POSITION":0,
						"NORMAL":1,
						"TEXCOORD_0":2
					},
					"indices":3,
					"material":0
				}
			]
		}
	],
	"skins":[
		{
			"inverseBindMatrices":24,
			"joints":[
				6,
				5,
				1,
				0,
				4,
				3
			],
			"name":"Armature"
		}
	],
	"accessors":[
		{
			"bufferView":0,
			"componentType":5126,
			"count":168,
			"max":[
				4.946267127990723,
				1,
				1
			],
			"min":[
				-4.244399070739746,
				-11.146089553833008,
				-1
			],
			"type":"VEC3"
		},
		{
			"bufferView":1,
			"componentType":5126,
			"count":168,
			"type":"VEC3"
		},
		{
			"bufferView":2,
			"componentType":5126,
			"count":168,
			"type":"VEC2"
		},
		{
			"bufferView":3,
			"componentType":5123,
			"count":348,
			"type":"SCALAR"
		},
		{
			"bufferView":4,
			"componentType":5126,
			"count":3,
			"max":[
				1
			],
			"min":[
				0.041666666666666664
			],
			"type":"SCALAR"
		},
		{
			"bufferView":5,
			"componentType":5126,
			"count":9,
			"type":"VEC3"
		},
		{
			"bufferView":6,
			"componentType":5126,
			"count":9,
			"type":"VEC4"
		},
		{
			"bufferView":7,
			"componentType":5126,
			"count":9,
			"type":"VEC3"
		},
		{
			"bufferView":8,
			"componentType":5126,
			"count":2,
			"max":[
				1
			],
			"min":[
				0.041666666666666664
			],
			"type":"SCALAR"
		},
		{
			"bufferView":9,
			"componentType":5126,
			"count":2,
			"type":"VEC3"
		},
		{
			"bufferView":10,
			"componentType":5126,
			"count":2,
			"type":"VEC3"
		},
		{
			"bufferView":11,
			"componentType":5126,
			"count":2,
			"type":"VEC4"
		},
		{
			"bufferView":12,
			"componentType":5126,
			"count":2,
			"type":"VEC3"
		},
		{
			"bufferView":13,
			"componentType":5126,
			"count":2,
			"type":"VEC4"
		},
		{
			"bufferView":14,
			"componentType":5126,
			"count":2,
			"type":"VEC3"
		},
		{
			"bufferView":15,
			"componentType":5126,
			"count":2,
			"type":"VEC3"
		},
		{
			"bufferView":16,
			"componentType":5126,
			"count":2,
			"type":"VEC3"
		},
		{
			"bufferView":17,
			"componentType":5126,
			"count":2,
			"type":"VEC4"
		},
		{
			"bufferView":18,
			"componentType":5126,
			"count":2,
			"type":"VEC3"
		},
		{
			"bufferView":19,
			"componentType":5126,
			"count":2,
			"type":"VEC3"
		},
		{
			"bufferView":20,
			"componentType":5126,
			"count":2,
			"type":"VEC4"
		},
		{
			"bufferView":21,
			"componentType":5126,
			"count":2,
			"type":"VEC3"
		},
		{
			"bufferView":22,
			"componentType":5126,
			"count":2,
			"type":"VEC3"
		},
		{
			"bufferView":23,
			"componentType":5126,
			"count":2,
			"type":"VEC4"
		},
		{
			"bufferView":24,
			"componentType":5126,
			"count":6,
			"type":"MAT4"
		}
	],
	"bufferViews":[
		{
			"buffer":0,
			"byteLength":2016,
			"byteOffset":0,
			"target":34962
		},
		{
			"buffer":0,
			"byteLength":2016,
			"byteOffset":2016,
			"target":34962
		},
		{
			"buffer":0,
			"byteLength":1344,
			"byteOffset":4032,
			"target":34962
		},
		{
			"buffer":0,
			"byteLength":696,
			"byteOffset":5376,
			"target":34963
		},
		{
			"buffer":0,
			"byteLength":12,
			"byteOffset":6072
		},
		{
			"buffer":0,
			"byteLength":108,
			"byteOffset":6084
		},
		{
			"buffer":0,
			"byteLength":144,
			"byteOffset":6192
		},
		{
			"buffer":0,
			"byteLength":108,
			"byteOffset":6336
		},
		{
			"buffer":0,
			"byteLength":8,
			"byteOffset":6444
		},
		{
			"buffer":0,
			"byteLength":24,
			"byteOffset":6452
		},
		{
			"buffer":0,
			"byteLength":24,
			"byteOffset":6476
		},
		{
			"buffer":0,
			"byteLength":32,
			"byteOffset":6500
		},
		{
			"buffer":0,
			"byteLength":24,
			"byteOffset":6532
		},
		{
			"buffer":0,
			"byteLength":32,
			"byteOffset":6556
		},
		{
			"buffer":0,
			"byteLength":24,
			"byteOffset":6588
		},
		{
			"buffer":0,
			"byteLength":24,
			"byteOffset":6612
		},
		{
			"buffer":0,
			"byteLength":24,
			"byteOffset":6636
		},
		{
			"buffer":0,
			"byteLength":32,
			"byteOffset":6660
		},
		{
			"buffer":0,
			"byteLength":24,
			"byteOffset":6692
		},
		{
			"buffer":0,
			"byteLength":24,
			"byteOffset":6716
		},
		{
			"buffer":0,
			"byteLength":32,
			"byteOffset":6740
		},
		{
			"buffer":0,
			"byteLength":24,
			"byteOffset":6772
		},
		{
			"buffer":0,
			"byteLength":24,
			"byteOffset":6796
		},
		{
			"buffer":0,
			"byteLength":32,
			"byteOffset":6820
		},
		{
			"buffer":0,
			"byteLength":384,
			"byteOffset":6852
		}
	],
	"buffers":[
		{
			"byteLength":7236,
			"uri":"cyborg3.bin"
		}
	]
}
